<svg width="40" height="40" viewBox="0 0 40 40" fill="none" xmlns="http://www.w3.org/2000/svg">
<rect width="40" height="40" rx="12" fill="#FFF0F1"/>
<path d="M27.5 14.9833C24.725 14.7083 21.9333 14.5667 19.15 14.5667C17.5 14.5667 15.85 14.65 14.2 14.8167L12.5 14.9833" stroke="#C82D31" stroke-width="1.5" stroke-linecap="round" stroke-linejoin="round"/>
<path d="M17.0834 14.1416L17.2667 13.05C17.4 12.2583 17.5 11.6666 18.9084 11.6666H21.0917C22.5 11.6666 22.6084 12.2916 22.7334 13.0583L22.9167 14.1416" stroke="#C82D31" stroke-width="1.5" stroke-linecap="round" stroke-linejoin="round"/>
<path d="M25.7083 17.6167L25.1666 26.0084C25.075 27.3167 25 28.3334 22.675 28.3334H17.325C15 28.3334 14.925 27.3167 14.8333 26.0084L14.2916 17.6167" stroke="#C82D31" stroke-width="1.5" stroke-linecap="round" stroke-linejoin="round"/>
<path d="M18.6083 23.75H21.3833" stroke="#C82D31" stroke-width="1.5" stroke-linecap="round" stroke-linejoin="round"/>
<path d="M17.9166 20.4166H22.0833" stroke="#C82D31" stroke-width="1.5" stroke-linecap="round" stroke-linejoin="round"/>
</svg>
