<svg width="20" height="20" viewBox="0 0 20 20" fill="none" xmlns="http://www.w3.org/2000/svg">
<path d="M12.8125 13.4373C12.8125 12.8964 12.8125 11.2498 14.375 11.2498H17.5V9.3748C17.5 8.51324 16.7991 7.8123 15.9375 7.8123H2.5C1.63844 7.8123 0.9375 8.51324 0.9375 9.3748V17.4998C0.9375 18.3614 1.63844 19.0623 2.5 19.0623H15.9375C16.7991 19.0623 17.5 18.3614 17.5 17.4998V15.6248H14.375C12.8125 15.6248 12.8125 13.9782 12.8125 13.4373ZM13.4375 7.1873V5.29293C13.4375 4.97012 13.2691 4.6773 12.9869 4.5098C12.8448 4.42455 12.6828 4.37811 12.5171 4.37515C12.3514 4.37219 12.1879 4.4128 12.0428 4.49293L6.63938 7.1873H13.4375Z" fill="#7976FF"/>
<path d="M15.3125 14.0625C15.6577 14.0625 15.9375 13.7827 15.9375 13.4375C15.9375 13.0923 15.6577 12.8125 15.3125 12.8125C14.9673 12.8125 14.6875 13.0923 14.6875 13.4375C14.6875 13.7827 14.9673 14.0625 15.3125 14.0625Z" fill="#7976FF"/>
<path d="M10.6251 4.50167V3.17136C10.6286 2.98237 10.577 2.79646 10.4765 2.63639C10.3759 2.47631 10.2309 2.34902 10.0592 2.27011C9.7273 2.11948 9.36355 2.17511 9.08605 2.41854L3.64355 7.18729H5.23918L10.6251 4.50167ZM18.1251 11.8748H14.3751C13.8123 11.8748 13.4376 12.1407 13.4376 13.4373C13.4376 14.7339 13.8123 14.9998 14.3751 14.9998H18.1251C18.642 14.9998 19.0626 14.5792 19.0626 14.0623V12.8123C19.0626 12.2954 18.642 11.8748 18.1251 11.8748ZM15.3126 14.6873C14.6232 14.6873 14.0626 14.1267 14.0626 13.4373C14.0626 12.7479 14.6232 12.1873 15.3126 12.1873C16.002 12.1873 16.5626 12.7479 16.5626 13.4373C16.5626 14.1267 16.002 14.6873 15.3126 14.6873ZM19.3061 2.74917L17.8686 0.815419C17.8252 0.757068 17.7688 0.709677 17.7038 0.677036C17.6388 0.644395 17.5671 0.627411 17.4944 0.627441C17.4217 0.627472 17.35 0.644516 17.2851 0.677211C17.2201 0.709906 17.1638 0.757344 17.1204 0.815731L15.6917 2.73979C15.66 2.77129 15.6385 2.81147 15.6297 2.85525C15.6209 2.89902 15.6254 2.94441 15.6425 2.98566C15.6595 3.02691 15.6885 3.06216 15.7256 3.08693C15.7628 3.1117 15.8064 3.12488 15.8511 3.12479H16.5567C16.6498 3.5817 16.5989 4.05624 16.411 4.483C16.2231 4.90977 15.9075 5.26775 15.5076 5.50761L15.3126 5.62479L16.5626 6.56229L16.6176 6.52573C17.1774 6.15241 17.6365 5.64668 17.9539 5.05341C18.2714 4.46014 18.4376 3.79767 18.4376 3.12479H19.1504C19.194 3.12482 19.2365 3.11193 19.2727 3.08776C19.3089 3.06358 19.3371 3.02922 19.3538 2.989C19.3705 2.94879 19.3748 2.90453 19.3663 2.86184C19.3578 2.81915 19.3368 2.77994 19.3061 2.74917Z" fill="#7976FF"/>
</svg>
